<svg width="75" height="75" viewBox="0 0 75 75" fill="none" xmlns="http://www.w3.org/2000/svg">
<circle cx="37.5" cy="37.5" r="37.5" fill="#FF9E00"/>
<path d="M29.6875 46.875C27.9688 46.875 26.5781 48.2812 26.5781 50C26.5781 51.7188 27.9688 53.125 29.6875 53.125C31.4062 53.125 32.8125 51.7188 32.8125 50C32.8125 48.2812 31.4062 46.875 29.6875 46.875ZM20.3125 21.875V25H23.4375L29.0625 36.8594L26.9531 40.6875C26.7031 41.125 26.5625 41.6406 26.5625 42.1875C26.5625 43.9062 27.9688 45.3125 29.6875 45.3125H48.4375V42.1875H30.3438C30.125 42.1875 29.9531 42.0156 29.9531 41.7969L30 41.6094L31.4063 39.0625H43.0469C44.2188 39.0625 45.25 38.4219 45.7812 37.4531L51.375 27.3125C51.5039 27.074 51.5688 26.8062 51.5632 26.5352C51.5577 26.2642 51.482 25.9992 51.3434 25.7662C51.2049 25.5332 51.0083 25.3402 50.7728 25.2059C50.5374 25.0716 50.2711 25.0006 50 25H26.8906L25.4219 21.875H20.3125ZM45.3125 46.875C43.5938 46.875 42.2031 48.2812 42.2031 50C42.2031 51.7188 43.5938 53.125 45.3125 53.125C47.0312 53.125 48.4375 51.7188 48.4375 50C48.4375 48.2812 47.0312 46.875 45.3125 46.875Z" fill="white"/>
</svg>
