<svg width="75" height="75" viewBox="0 0 75 75" fill="none" xmlns="http://www.w3.org/2000/svg">
<circle cx="37.5" cy="37.5" r="37.5" fill="#FF9E00"/>
<path d="M29.8608 19.9753C29.8608 19.9753 28.3521 21.0095 28.2495 21.8196C28.147 22.6494 29.5386 23.2288 29.3921 24.052C29.2969 24.5962 28.1763 25.1785 28.1763 25.1785C28.1763 25.1785 31.0107 24.9324 31.2744 23.8381C31.4868 22.9724 29.8242 22.6216 29.5898 21.7617C29.436 21.1802 29.8608 19.9753 29.8608 19.9753ZM45.564 20.3335C45.564 20.3335 43.7476 21.3281 43.7402 22.1975C43.7329 22.7278 44.7949 22.8325 44.8242 23.3621C44.8608 23.989 43.7036 24.8767 43.7036 24.8767C43.7036 24.8767 46.1646 24.5977 46.4941 23.6338C46.6919 23.0647 45.8057 22.6223 45.6445 22.0422C45.4907 21.4929 45.564 20.3335 45.564 20.3335ZM37.7344 20.3525C37.7344 20.3525 35.7642 21.3596 35.9106 22.2166C36.0132 22.7974 37.4194 22.4084 37.5 22.9929C37.6245 23.9458 35.332 24.8958 35.332 24.8958C35.332 24.8958 39.4702 24.7903 39.6387 23.2646C39.7192 22.541 38.1738 22.6941 37.8149 22.0613C37.5293 21.5654 37.7344 20.3525 37.7344 20.3525ZM22.2656 26.4844V27.8027H52.7344V26.4844H22.2656ZM23.4375 29.1943C22.377 35.5591 24.6753 39.3091 27.7295 41.5137C27.4658 39.6973 26.6968 37.9175 25.1616 36.2256C28.0884 36.9946 30.3882 39.7998 31.4136 42.6123C31.582 41.2353 31.582 40.5981 32.8418 39.375C32.6147 41.1914 33.6621 41.3159 34.3945 41.0889C36.2476 40.5103 37.002 38.1958 35.1709 35.3101C38.6572 36.9727 38.7085 38.855 39.2944 41.4404C39.1187 39.0088 41.0742 38.0347 42.4951 38.9502C39.1919 40.6128 41.8945 42.041 43.0005 42.3926C45.9302 43.3301 48.1274 39.0015 49.3872 35.7275C49.7314 37.1777 49.4458 38.6353 48.9111 40.0854C51.0791 37.793 52.4194 34.3506 51.5625 29.1943H23.4375ZM36.936 42.0264L24.2432 49.3286C24.4409 50.6763 24.9023 51.8481 25.6201 52.8809L32.3584 49.6509L26.5942 54.0381C26.8433 54.2871 27.1143 54.5215 27.3999 54.7485L32.8711 51.6064C32.8711 51.5552 32.8638 51.4966 32.8638 51.4453C32.8638 48.7207 35.0977 46.4941 37.8296 46.4941C38.606 46.4941 39.3384 46.6699 39.9902 46.9849C39.8145 46.0034 39.4556 45 38.9062 44.1138L31.9556 47.0508L37.998 42.9126C37.6758 42.583 37.3242 42.2827 36.936 42.0264ZM41.25 46.2451C41.3672 46.7725 41.4404 47.2998 41.4697 47.8125L41.4844 48.0981C42.2974 48.9771 42.7954 50.1562 42.7954 51.4453C42.7954 52.0166 42.7002 52.5659 42.5171 53.0713L49.2114 54.8584C49.5483 54.397 49.8413 53.9209 50.0757 53.4375L45.4541 51.6284L50.5884 52.1338C50.6543 51.9141 50.7056 51.7017 50.7495 51.4819L43.6377 48.9697L50.9033 50.105C50.918 49.6802 50.896 49.248 50.8447 48.8086L41.25 46.2451ZM37.8296 47.8638C35.8374 47.8638 34.2334 49.4604 34.2334 51.4453C34.2334 53.4302 35.8374 55.0269 37.8296 55.0269C39.8291 55.0269 41.4331 53.4302 41.4331 51.4453C41.4331 49.4604 39.8291 47.8638 37.8296 47.8638ZM37.4707 48.728C40.6787 48.728 41.748 53.9722 37.4707 53.9722C39.4189 52.2803 39.6533 50.5371 37.4707 48.728ZM37.4854 49.4458C35.9033 50.7568 36.0718 52.0239 37.4854 53.2544C34.3799 53.2544 35.1562 49.4458 37.4854 49.4458Z" fill="white"/>
</svg>
