<svg width="75" height="75" viewBox="0 0 75 75" fill="none" xmlns="http://www.w3.org/2000/svg">
<circle cx="37.5" cy="37.5" r="37.5" fill="#FF9E00"/>
<path d="M48.375 47.6562C47.7534 47.6562 47.1573 47.4093 46.7177 46.9698C46.2782 46.5302 46.0312 45.9341 46.0312 45.3125C46.0312 44.6909 46.2782 44.0948 46.7177 43.6552C47.1573 43.2157 47.7534 42.9688 48.375 42.9688C48.9966 42.9688 49.5927 43.2157 50.0323 43.6552C50.4718 44.0948 50.7188 44.6909 50.7188 45.3125C50.7188 45.9341 50.4718 46.5302 50.0323 46.9698C49.5927 47.4093 48.9966 47.6562 48.375 47.6562ZM50.7188 33.5938L53.7812 37.5H46.8125V33.5938M29.625 47.6562C29.0034 47.6562 28.4073 47.4093 27.9677 46.9698C27.5282 46.5302 27.2812 45.9341 27.2812 45.3125C27.2812 44.6909 27.5282 44.0948 27.9677 43.6552C28.4073 43.2157 29.0034 42.9688 29.625 42.9688C30.2466 42.9688 30.8427 43.2157 31.2823 43.6552C31.7218 44.0948 31.9688 44.6909 31.9688 45.3125C31.9688 45.9341 31.7218 46.5302 31.2823 46.9698C30.8427 47.4093 30.2466 47.6562 29.625 47.6562ZM51.5 31.25H46.8125V25H24.9375C23.2031 25 21.8125 26.3906 21.8125 28.125V45.3125H24.9375C24.9375 46.5557 25.4314 47.748 26.3104 48.6271C27.1895 49.5061 28.3818 50 29.625 50C30.8682 50 32.0605 49.5061 32.9396 48.6271C33.8186 47.748 34.3125 46.5557 34.3125 45.3125H43.6875C43.6875 46.5557 44.1814 47.748 45.0604 48.6271C45.9395 49.5061 47.1318 50 48.375 50C49.6182 50 50.8105 49.5061 51.6896 48.6271C52.5686 47.748 53.0625 46.5557 53.0625 45.3125H56.1875V37.5L51.5 31.25Z" fill="white"/>
</svg>
