<svg width="40" height="40" viewBox="0 0 50 50" fill="none" xmlns="http://www.w3.org/2000/svg">
<circle cx="25" cy="25" r="25" fill="#FF9E00"/>
<path d="M35 15H15C13.625 15 12.5125 16.125 12.5125 17.5L12.5 32.5C12.5 33.875 13.625 35 15 35H35C36.375 35 37.5 33.875 37.5 32.5V17.5C37.5 16.125 36.375 15 35 15ZM34.5 20.3125L25.6625 25.8375C25.2625 26.0875 24.7375 26.0875 24.3375 25.8375L15.5 20.3125C15.3747 20.2421 15.2649 20.1471 15.1774 20.0331C15.0898 19.9191 15.0263 19.7885 14.9907 19.6492C14.9551 19.51 14.9481 19.3649 14.9702 19.2229C14.9923 19.0808 15.0429 18.9448 15.1191 18.8229C15.1953 18.701 15.2954 18.5958 15.4134 18.5137C15.5314 18.4317 15.6648 18.3744 15.8056 18.3454C15.9464 18.3164 16.0916 18.3162 16.2324 18.3449C16.3733 18.3737 16.5068 18.4307 16.625 18.5125L25 23.75L33.375 18.5125C33.4932 18.4307 33.6267 18.3737 33.7676 18.3449C33.9084 18.3162 34.0536 18.3164 34.1944 18.3454C34.3352 18.3744 34.4686 18.4317 34.5866 18.5137C34.7046 18.5958 34.8047 18.701 34.8809 18.8229C34.9571 18.9448 35.0077 19.0808 35.0298 19.2229C35.0519 19.3649 35.0449 19.51 35.0093 19.6492C34.9737 19.7885 34.9102 19.9191 34.8226 20.0331C34.7351 20.1471 34.6253 20.2421 34.5 20.3125Z" fill="white"/>
</svg>
