<svg width="40" height="40" viewBox="0 0 50 50" fill="none" xmlns="http://www.w3.org/2000/svg">
<circle cx="25" cy="25" r="25" fill="#FF9E00"/>
<path d="M30.625 12.8125H19.375C17.6351 12.8144 15.967 13.5064 14.7367 14.7367C13.5064 15.967 12.8144 17.6351 12.8125 19.375V30.625C12.8144 32.3649 13.5064 34.033 14.7367 35.2633C15.967 36.4936 17.6351 37.1856 19.375 37.1875H30.625C32.3649 37.1856 34.033 36.4936 35.2633 35.2633C36.4936 34.033 37.1856 32.3649 37.1875 30.625V19.375C37.1856 17.6351 36.4936 15.967 35.2633 14.7367C34.033 13.5064 32.3649 12.8144 30.625 12.8125ZM25 30.625C23.8875 30.625 22.7999 30.2951 21.8749 29.677C20.9499 29.0589 20.2289 28.1804 19.8032 27.1526C19.3774 26.1248 19.266 24.9938 19.4831 23.9026C19.7001 22.8115 20.2359 21.8092 21.0225 21.0225C21.8092 20.2359 22.8115 19.7001 23.9026 19.4831C24.9938 19.266 26.1248 19.3774 27.1526 19.8032C28.1804 20.2289 29.0589 20.9499 29.677 21.8749C30.2951 22.7999 30.625 23.8875 30.625 25C30.6234 26.4914 30.0303 27.9212 28.9758 28.9758C27.9212 30.0303 26.4914 30.6234 25 30.625ZM32.0312 19.375C31.7531 19.375 31.4812 19.2925 31.25 19.138C31.0187 18.9835 30.8385 18.7639 30.732 18.5069C30.6256 18.2499 30.5978 17.9672 30.652 17.6944C30.7063 17.4216 30.8402 17.171 31.0369 16.9744C31.2335 16.7777 31.4841 16.6438 31.7569 16.5895C32.0297 16.5353 32.3124 16.5631 32.5694 16.6695C32.8264 16.776 33.046 16.9562 33.2005 17.1875C33.355 17.4187 33.4375 17.6906 33.4375 17.9688C33.4375 18.3417 33.2893 18.6994 33.0256 18.9631C32.7619 19.2268 32.4042 19.375 32.0312 19.375ZM28.75 25C28.75 25.7417 28.5301 26.4667 28.118 27.0834C27.706 27.7001 27.1203 28.1807 26.4351 28.4645C25.7498 28.7484 24.9958 28.8226 24.2684 28.6779C23.541 28.5333 22.8728 28.1761 22.3483 27.6516C21.8239 27.1272 21.4667 26.459 21.3221 25.7316C21.1774 25.0042 21.2516 24.2502 21.5355 23.5649C21.8193 22.8797 22.2999 22.294 22.9166 21.882C23.5333 21.4699 24.2583 21.25 25 21.25C25.9946 21.25 26.9484 21.6451 27.6516 22.3483C28.3549 23.0516 28.75 24.0054 28.75 25Z" fill="white"/>
</svg>
