<svg width="863" height="846" viewBox="0 0 863 846" fill="none" xmlns="http://www.w3.org/2000/svg">
<path d="M817.142 133.534C817.142 133.534 760.988 19.1944 637.174 2.25679C513.36 -14.6808 426.794 67.9068 335.649 110.251C287.897 132.417 233.375 123.814 182.696 134.54C20.6492 168.862 -40.3978 383.889 27.1069 506.184C85.5395 612.033 188.394 667.069 344.989 679.784C501.584 692.498 611.455 707.313 751.67 603.565C891.886 499.816 882.591 283.85 817.142 133.534Z" fill="#FF9E00"/>
<path opacity="0.7" d="M817.142 133.534C817.142 133.534 760.988 19.1944 637.174 2.25679C513.36 -14.6808 426.794 67.9068 335.649 110.251C287.897 132.417 233.375 123.814 182.696 134.54C20.6492 168.862 -40.3978 383.889 27.1069 506.184C85.5395 612.033 188.394 667.069 344.989 679.784C501.584 692.498 611.455 707.313 751.67 603.565C891.886 499.816 882.591 283.85 817.142 133.534Z" fill="white"/>
<path d="M430.347 845.719C649.349 845.719 826.884 806.932 826.884 759.087C826.884 711.241 649.349 672.455 430.347 672.455C211.346 672.455 33.8105 711.241 33.8105 759.087C33.8105 806.932 211.346 845.719 430.347 845.719Z" fill="#FF9E00"/>
<path opacity="0.5" d="M430.347 845.719C649.349 845.719 826.884 806.932 826.884 759.087C826.884 711.241 649.349 672.455 430.347 672.455C211.346 672.455 33.8105 711.241 33.8105 759.087C33.8105 806.932 211.346 845.719 430.347 845.719Z" fill="white"/>
<path d="M742.464 496.956L730.554 491.749C731.44 493.936 732.694 495.954 734.263 497.716C736.028 499.754 737.53 502.006 738.732 504.419C738.732 504.419 727.56 496.219 720.119 494.721C714.956 493.792 709.723 493.299 704.477 493.247L715.65 498.453L706.712 500.688L708.946 503.682H693.305L703.74 511.123L699.271 517.089L694.802 524.53L706.712 520.821L703.74 528.261L709.706 525.29L705.974 531.993H698.422L708.097 537.2H701.394L704.366 539.434L699.897 543.166L709.594 544.663L703.494 548.931L718.532 546.897L713.326 554.338L725.973 551.366V555.098H796.025L798.014 548.931L800.494 546.138L807.958 540.931L799.757 540.194L803.489 537.959L800.494 534.965L805.723 531.233L801.991 526.027L807.22 515.592L796.048 514.095L798.282 508.888V499.19L787.847 498.453L789.344 488.018L781.143 490.252L776.674 491.012L770.708 485.046L768.474 495.481L759.536 487.28L755.067 484.286L753.57 493.224L746.129 491.727L742.464 496.956Z" fill="#FF9E00"/>
<path opacity="0.4" d="M742.464 496.956L730.554 491.749C731.44 493.936 732.694 495.954 734.263 497.716C736.028 499.754 737.53 502.006 738.732 504.419C738.732 504.419 727.56 496.219 720.119 494.721C714.956 493.792 709.723 493.299 704.477 493.247L715.65 498.453L706.712 500.688L708.946 503.682H693.305L703.74 511.123L699.271 517.089L694.802 524.53L706.712 520.821L703.74 528.261L709.706 525.29L705.974 531.993H698.422L708.097 537.2H701.394L704.366 539.434L699.897 543.166L709.594 544.663L703.494 548.931L718.532 546.897L713.326 554.338L725.973 551.366V555.098H796.025L798.014 548.931L800.494 546.138L807.958 540.931L799.757 540.194L803.489 537.959L800.494 534.965L805.723 531.233L801.991 526.027L807.22 515.592L796.048 514.095L798.282 508.888V499.19L787.847 498.453L789.344 488.018L781.143 490.252L776.674 491.012L770.708 485.046L768.474 495.481L759.536 487.28L755.067 484.286L753.57 493.224L746.129 491.727L742.464 496.956Z" fill="white"/>
<path opacity="0.2" d="M730.554 555.098H796.115L797.724 550.115L796.115 549.892L798.349 544.685V534.987L787.914 534.25L789.411 523.815L781.21 526.049L776.741 526.809L770.775 520.843L768.541 531.278L759.603 523.077L755.134 520.083L753.637 529.021L746.196 527.524L742.464 532.73L730.554 527.524C731.44 529.71 732.694 531.728 734.263 533.49C736.028 535.528 737.53 537.781 738.732 540.194C738.732 540.194 727.56 531.993 720.119 530.496C715.965 529.725 711.76 529.254 707.538 529.088L706.958 530.183L715.65 534.228L706.712 536.462L708.097 537.199H707.136L708.835 539.434H704.366L699.896 543.121L709.594 544.618L703.494 548.886L718.532 546.853L713.326 554.294L725.973 551.322V555.053L730.554 555.098Z" fill="#263238"/>
<path d="M768.049 695.761H731.626C728.591 695.75 725.642 694.752 723.223 692.918C720.805 691.084 719.048 688.513 718.219 685.594C707.113 646.674 702.041 606.281 703.181 565.824L703.65 548.931H798.17L798.639 564.572C799.867 604.811 794.954 645.003 784.07 683.761C783.072 687.234 780.967 690.285 778.075 692.452C775.183 694.618 771.662 695.78 768.049 695.761Z" fill="#263238" stroke="#263238" stroke-linecap="round" stroke-linejoin="round"/>
<path d="M792.786 70.7224H520.041V462.209H792.786V70.7224Z" stroke="#263238" stroke-linecap="round" stroke-linejoin="round"/>
<path d="M778.597 86.1852H534.23V446.746H778.597V86.1852Z" stroke="#263238" stroke-linecap="round" stroke-linejoin="round"/>
<path d="M664.101 86.1852H648.727V446.746H664.101V86.1852Z" stroke="#263238" stroke-linecap="round" stroke-linejoin="round"/>
<path d="M158.764 659.427H434.838L434.838 84.7551H158.764L158.764 659.427Z" stroke="#263238" stroke-miterlimit="10"/>
<path d="M444.894 70.7224V672.455H428.314V88.2856H161.714V672.455H143.301V70.7224H444.894Z" stroke="#263238" stroke-miterlimit="10"/>
<path d="M192.506 635.719H401.053L401.053 111.994H192.506L192.506 635.719Z" stroke="#263238" stroke-miterlimit="10"/>
<path d="M215.61 599.006H377.947V435.484H215.61L215.61 599.006Z" stroke="#263238" stroke-miterlimit="10"/>
<path d="M377.948 151.098H316.342V410.592H377.948V151.098Z" stroke="#263238" stroke-linecap="round" stroke-linejoin="round"/>
<path d="M277.238 151.098H215.633V410.592H277.238V151.098Z" stroke="#263238" stroke-linecap="round" stroke-linejoin="round"/>
<path d="M166.094 345.523H187.634V337.501H166.094V345.523Z" fill="#263238" stroke="#263238" stroke-linecap="round" stroke-linejoin="round"/>
<path d="M166.094 458.187H187.634V450.165H166.094V458.187Z" fill="#263238" stroke="#263238" stroke-linecap="round" stroke-linejoin="round"/>
<path d="M190.741 486.431C191.683 486.431 192.586 486.057 193.253 485.391C193.919 484.724 194.293 483.821 194.293 482.878V314.62C194.305 314.146 194.222 313.674 194.049 313.232C193.876 312.791 193.616 312.389 193.285 312.049C192.954 311.71 192.558 311.44 192.121 311.256C191.684 311.072 191.215 310.977 190.741 310.977C189.798 310.977 188.895 311.352 188.228 312.018C187.562 312.684 187.188 313.588 187.188 314.53V482.789C187.176 483.263 187.259 483.735 187.432 484.176C187.605 484.618 187.865 485.02 188.196 485.359C188.527 485.699 188.923 485.969 189.36 486.153C189.797 486.337 190.266 486.431 190.741 486.431Z" fill="#263238" stroke="#263238" stroke-linecap="round" stroke-linejoin="round"/>
<path d="M167.3 414.614H178.831V392.582H167.3V414.614Z" stroke="#263238" stroke-linecap="round" stroke-linejoin="round"/>
<path d="M128.979 734.574H461.474L423.108 675.561H167.345L128.979 734.574Z" stroke="#263238" stroke-miterlimit="10"/>
<path d="M829.968 672.455H429.833" stroke="#263238" stroke-linecap="round" stroke-linejoin="round"/>
<path d="M145.536 672.455H9.74463" stroke="#263238" stroke-linecap="round" stroke-linejoin="round"/>
<path d="M492.668 587.119H290.399V759.064H492.668V587.119Z" fill="#FF9E00" stroke="#263238" stroke-linecap="round" stroke-linejoin="round"/>
<path d="M409.388 587.119H373.68V617.508H409.388V587.119Z" fill="white" stroke="#263238" stroke-width="0.5" stroke-linecap="round" stroke-linejoin="round"/>
<path d="M409.388 728.675H373.68V759.064H409.388V728.675Z" fill="white" stroke="#263238" stroke-width="0.5" stroke-linecap="round" stroke-linejoin="round"/>
<path d="M492.668 587.119L524.934 578.18V728.921L492.668 759.064V587.119Z" fill="#FF9E00" stroke="#263238" stroke-linecap="round" stroke-linejoin="round"/>
<path d="M524.934 578.18H314.89L290.399 587.119H492.668L524.934 578.18Z" fill="#FF9E00" stroke="#263238" stroke-linecap="round" stroke-linejoin="round"/>
<path d="M305.662 581.465H516.309" stroke="#263238" stroke-width="0.5" stroke-linecap="round" stroke-linejoin="round"/>
<path d="M409.388 587.119L439.688 578.292H397.992L373.68 587.119H409.388Z" fill="white" stroke="#263238" stroke-width="0.5" stroke-linecap="round" stroke-linejoin="round"/>
<path d="M412.222 492.446C412.222 492.446 446.549 486.68 456.832 483.174C464.567 480.673 472.429 478.581 480.385 476.908C482.441 476.433 484.541 476.179 486.651 476.152C486.651 476.152 487.653 476.152 487.407 480.414C487.161 484.677 492.917 540.061 498.182 557.102C503.446 574.143 506.688 582.167 506.688 582.167C506.688 582.167 475.867 588.433 447.296 588.433C431.501 588.537 415.73 587.192 400.181 584.416C399.179 584.416 412.468 534.325 411.957 517.255C411.485 499.997 412.222 492.446 412.222 492.446Z" fill="#FF9E00" stroke="#263238" stroke-linecap="round" stroke-linejoin="round"/>
<path d="M498.229 557.102C492.964 540.09 487.199 484.677 487.454 480.414C487.709 476.152 486.698 476.152 486.698 476.152C485.522 476.168 484.348 476.254 483.182 476.407C483.05 477.487 483.05 478.578 483.182 479.658C483.182 479.658 482.918 506.982 482.161 539.353C481.538 566.175 481.944 581.6 482.105 586.08C496.367 584.313 506.678 582.214 506.678 582.214C506.678 582.214 503.474 574.143 498.229 557.102Z" fill="#FF9E00" stroke="#263238" stroke-linecap="round" stroke-linejoin="round"/>
<path d="M486.179 477.409V489.941C486.179 493.948 486.935 495.952 485.423 495.952C483.91 495.952 471.397 498.211 451.095 502.218C438.194 504.793 425.129 506.467 411.995 507.228C410.493 507.228 412.25 492.446 412.25 492.446C412.25 492.446 450.339 486.425 462.617 482.418C469.922 480.025 477.372 478.099 484.922 476.653" fill="#FF9E00"/>
<path d="M486.179 477.409V489.941C486.179 493.948 486.935 495.952 485.423 495.952C483.91 495.952 471.397 498.211 451.095 502.218C438.194 504.793 425.129 506.467 411.995 507.228C410.493 507.228 412.25 492.446 412.25 492.446C412.25 492.446 450.339 486.425 462.617 482.418C469.922 480.025 477.372 478.099 484.922 476.653" stroke="#263238" stroke-linecap="round" stroke-linejoin="round"/>
<path d="M396.561 508.397C396.561 508.397 393.41 574.65 388.025 591.074C382.639 607.497 378.595 728.161 378.349 734.083C378.103 740.004 394.371 758.171 401.722 761.791C409.074 765.41 405.923 766.773 398.236 767.868C390.55 768.963 381.455 768.382 377.165 762.237C372.875 756.093 363.758 754.931 363.758 754.931L363.378 768.986L360.808 769.142L357.725 751.825C356.802 747.877 357.219 743.734 358.909 740.049C361.702 733.345 358.261 727.737 356.786 705.168C355.311 682.599 348.094 646.557 349.345 628.926C350.597 611.296 359.423 586.471 358.462 571.857C357.501 557.243 356.876 519.793 356.876 519.793L396.561 508.397Z" fill="white"/>
<mask id="mask0_76_187" style="mask-type:luminance" maskUnits="userSpaceOnUse" x="349" y="508" width="57" height="262">
<path d="M396.561 508.397C396.561 508.397 393.41 574.65 388.025 591.074C382.639 607.497 378.595 728.161 378.349 734.083C378.103 740.004 394.371 758.171 401.722 761.791C409.074 765.41 405.923 766.773 398.236 767.868C390.55 768.963 381.455 768.382 377.165 762.237C372.875 756.093 363.758 754.931 363.758 754.931L363.378 768.986L360.808 769.142L357.725 751.825C356.802 747.877 357.219 743.734 358.909 740.049C361.702 733.345 358.261 727.737 356.786 705.168C355.311 682.599 348.094 646.557 349.345 628.926C350.597 611.296 359.423 586.471 358.462 571.857C357.501 557.243 356.876 519.793 356.876 519.793L396.561 508.397Z" fill="white"/>
</mask>
<g mask="url(#mask0_76_187)">
<path d="M374.64 594.559C379.109 592.973 384.472 591.163 388.382 589.889C393.544 571.723 396.561 508.397 396.561 508.397L356.876 519.77C356.876 519.77 357.501 557.288 358.462 571.834C359.423 586.381 350.619 611.296 349.345 628.904C348.072 646.512 355.311 682.532 356.786 705.146C358.261 727.759 361.702 733.412 358.909 740.026C358.535 740.872 358.229 741.746 357.993 742.641C359.703 741.241 361.11 739.508 362.127 737.546C365.479 730.329 367.691 692.409 363.535 668.812C359.378 645.216 366.998 597.308 366.998 597.308L374.64 594.559Z" fill="#FF9E00"/>
<path opacity="0.5" d="M374.64 594.559C379.109 592.973 384.472 591.163 388.382 589.889C393.544 571.723 396.561 508.397 396.561 508.397L356.876 519.77C356.876 519.77 357.501 557.288 358.462 571.834C359.423 586.381 350.619 611.296 349.345 628.904C348.072 646.512 355.311 682.532 356.786 705.146C358.261 727.759 361.702 733.412 358.909 740.026C358.535 740.872 358.229 741.746 357.993 742.641C359.703 741.241 361.11 739.508 362.127 737.546C365.479 730.329 367.691 692.409 363.535 668.812C359.378 645.216 366.998 597.308 366.998 597.308L374.64 594.559Z" fill="white"/>
</g>
<path d="M396.561 508.397C396.561 508.397 393.41 574.65 388.025 591.074C382.639 607.497 378.595 728.161 378.349 734.083C378.103 740.004 394.371 758.171 401.722 761.791C409.074 765.41 405.923 766.773 398.236 767.868C390.55 768.963 381.455 768.382 377.165 762.237C372.875 756.093 363.758 754.931 363.758 754.931L363.378 768.986L360.808 769.142L357.725 751.825C356.802 747.877 357.219 743.734 358.909 740.049C361.702 733.345 358.261 727.737 356.786 705.168C355.311 682.599 348.094 646.557 349.345 628.926C350.597 611.296 359.423 586.471 358.462 571.857C357.501 557.243 356.876 519.793 356.876 519.793L396.561 508.397Z" stroke="#263238" stroke-linecap="round" stroke-linejoin="round"/>
<path d="M357.724 751.78C357.037 748.829 357.122 745.751 357.97 742.842C362.439 748.696 374.327 756.249 383.421 758.93C388.379 760.495 393.621 760.946 398.772 760.249C399.867 760.874 400.873 761.411 401.722 761.835C409.074 765.433 405.923 766.818 398.236 767.913C390.549 769.008 381.455 768.427 377.165 762.282C372.874 756.137 363.758 754.975 363.758 754.975L363.378 769.03L360.808 769.187L357.724 751.78Z" fill="#263238" stroke="#263238" stroke-linecap="round" stroke-linejoin="round"/>
<path d="M369.21 505.648C369.21 505.648 365.791 576.259 359.937 594.113C354.083 611.966 348.988 742.708 348.764 749.076C348.541 755.445 365.657 778.885 373.635 782.795C381.612 786.705 378.104 788.203 369.858 789.499C361.613 790.795 351.625 790.057 346.977 783.376C343.257 778.666 338.715 774.669 333.57 771.578L333.167 786.839L330.374 787.018L327.045 768.181C326.03 763.9 326.471 759.403 328.296 755.4C331.335 748.227 327.76 741.635 326.062 717.123C324.364 692.61 313.303 647.853 314.688 628.815C316.073 609.777 325.592 588.996 324.542 573.198C323.492 557.4 316.811 510.631 316.811 510.631L369.21 505.648Z" fill="white"/>
<mask id="mask1_76_187" style="mask-type:luminance" maskUnits="userSpaceOnUse" x="314" y="505" width="65" height="286">
<path d="M369.21 505.648C369.21 505.648 365.791 576.259 359.937 594.113C354.083 611.966 348.988 742.708 348.764 749.076C348.541 755.445 365.657 778.885 373.635 782.795C381.612 786.705 378.104 788.203 369.858 789.499C361.613 790.795 351.625 790.057 346.977 783.376C343.257 778.666 338.715 774.669 333.57 771.578L333.167 786.839L330.374 787.018L327.045 768.181C326.03 763.9 326.471 759.403 328.296 755.4C331.335 748.227 327.76 741.635 326.062 717.123C324.364 692.61 313.303 647.853 314.688 628.815C316.073 609.777 325.592 588.996 324.542 573.198C323.492 557.4 316.811 510.631 316.811 510.631L369.21 505.648Z" fill="white"/>
</mask>
<g mask="url(#mask1_76_187)">
<path d="M359.244 596.705C359.468 595.699 359.713 594.805 359.937 594.113C361.836 588.28 363.49 576.862 364.853 564.103L359.356 543.992C359.356 543.992 333.19 542.518 321.369 543.724C322.822 555.187 324.185 566.762 324.609 573.198C325.66 588.996 316.118 609.687 314.755 628.815C313.392 647.942 324.52 692.632 326.129 717.123C327.738 741.613 331.313 748.227 328.363 755.4C326.835 758.912 326.287 762.773 326.777 766.572C328.497 755.847 331.804 746.819 331.804 733.39C331.804 717.435 326.933 673.706 324.855 650.713C322.777 627.72 331.804 598.671 331.804 598.671C338.284 599.058 344.786 598.826 351.222 597.978C353.917 597.7 356.595 597.274 359.244 596.705Z" fill="#FF9E00"/>
<path opacity="0.5" d="M359.244 596.705C359.468 595.699 359.713 594.805 359.937 594.113C361.836 588.28 363.49 576.862 364.853 564.103L359.356 543.992C359.356 543.992 333.19 542.518 321.369 543.724C322.822 555.187 324.185 566.762 324.609 573.198C325.66 588.996 316.118 609.687 314.755 628.815C313.392 647.942 324.52 692.632 326.129 717.123C327.738 741.613 331.313 748.227 328.363 755.4C326.835 758.912 326.287 762.773 326.777 766.572C328.497 755.847 331.804 746.819 331.804 733.39C331.804 717.435 326.933 673.706 324.855 650.713C322.777 627.72 331.804 598.671 331.804 598.671C338.284 599.058 344.786 598.826 351.222 597.978C353.917 597.7 356.595 597.274 359.244 596.705Z" fill="white"/>
</g>
<path d="M369.21 505.648C369.21 505.648 365.791 576.259 359.937 594.113C354.083 611.966 348.988 742.708 348.764 749.076C348.541 755.445 365.657 778.885 373.635 782.795C381.612 786.705 378.104 788.203 369.858 789.499C361.613 790.795 351.625 790.057 346.977 783.376C343.257 778.666 338.715 774.669 333.57 771.578L333.167 786.839L330.374 787.018L327.045 768.181C326.03 763.9 326.471 759.403 328.296 755.4C331.335 748.227 327.76 741.635 326.062 717.123C324.364 692.61 313.303 647.853 314.688 628.815C316.073 609.777 325.592 588.996 324.542 573.198C323.492 557.4 316.811 510.631 316.811 510.631L369.21 505.648Z" stroke="#263238" stroke-linecap="round" stroke-linejoin="round"/>
<path d="M326.911 768.07C326.13 764.842 326.215 761.466 327.157 758.282C331.939 764.651 343.804 776.695 353.681 779.644C359.063 781.347 364.756 781.836 370.35 781.074C371.557 781.745 372.584 782.348 373.568 782.795C381.545 786.705 378.037 788.202 369.791 789.499C361.546 790.795 351.558 790.057 346.91 783.376C343.19 778.666 338.648 774.669 333.503 771.578L333.101 786.839L330.307 787.018L326.911 768.07Z" fill="#263238" stroke="#263238" stroke-linecap="round" stroke-linejoin="round"/>
<path d="M431.553 253.394C431.553 253.394 438.994 264.566 451.798 251.271C464.602 237.976 451.798 216.1 432.604 199.028C413.409 181.956 382.506 174.448 364.92 203.832C347.335 233.216 349.994 251.271 340.341 266.734C330.687 282.197 289.751 323.759 273.864 360.003C257.976 396.246 271.629 438.367 313.839 445.294C356.049 452.221 383.109 395.732 380.986 370.684C378.864 345.635 393.79 292.319 401.253 279.515C408.717 266.712 431.553 253.394 431.553 253.394Z" fill="#263238" stroke="#263238" stroke-linecap="round" stroke-linejoin="round"/>
<path d="M434.995 215.921C434.995 215.921 420.828 224.032 391.466 229.082C362.105 234.132 343.871 257.349 343.871 257.349" stroke="white" stroke-linecap="round" stroke-linejoin="round"/>
<path d="M292.231 436.646C292.231 436.646 265.908 421.474 284.142 385.007C308.722 335.847 386.393 252.366 386.393 252.366" stroke="white" stroke-linecap="round" stroke-linejoin="round"/>
<path d="M486.567 485.269C484.333 479.527 474.858 469.807 473.317 467.661C471.775 465.516 444.134 398.391 444.134 398.391C444.134 398.391 442.145 358.327 441.452 338.328C440.983 324.094 440.112 306.419 437.117 299.894C436.612 298.485 435.953 297.136 435.151 295.872V295.693C429.677 287.18 418.012 281.459 408.203 279.024C395.466 275.828 388.204 277.661 388.204 277.661C388.204 277.661 365.859 279.895 347.29 289.928C328.721 299.961 328.654 322.641 331.38 339.087C334.106 355.533 341.838 389.52 341.838 390.883C341.838 392.247 316.834 416.804 304.119 447.238C291.405 477.672 309.571 575.611 309.571 575.611C309.571 575.611 321.392 583.342 355.021 583.342C388.651 583.342 407.287 569.332 407.287 569.332C407.287 569.332 419.107 479.057 416.828 444.981C415.891 427.768 414.071 410.614 411.376 393.587C411.376 393.587 412.806 391.576 414.795 388.493C415.723 396.821 418.812 404.763 423.755 411.53C429.833 419.239 464.758 468.846 464.758 468.846C465.605 472.243 466.18 475.703 466.479 479.191C466.926 484.621 471.954 490.61 471.954 490.61C471.954 490.61 470.59 502.095 471.954 502.9C473.317 503.704 475.238 498.542 475.238 498.542C475.238 498.542 473.518 505.514 476.691 505.246C479.864 504.978 480.132 502.699 480.132 502.699C480.132 502.699 479.238 508.687 481.473 508.061C483.097 507.355 484.441 506.129 485.294 504.576C485.294 504.576 488.511 510.698 489.539 506.52C490.567 502.341 488.846 491.057 486.567 485.269Z" fill="white" stroke="#263238" stroke-linecap="round" stroke-linejoin="round"/>
<path d="M444.134 398.503C444.134 398.503 442.145 358.438 441.452 338.439C440.983 324.206 440.112 306.531 437.117 300.006C436.612 298.597 435.953 297.248 435.151 295.984V295.805C429.677 287.291 418.012 281.571 408.203 279.135C395.466 275.94 388.204 277.772 388.204 277.772C388.204 277.772 365.859 280.007 347.29 290.04C328.721 300.073 328.654 322.753 331.38 339.199C334.106 355.645 341.838 389.632 341.838 390.995C341.838 392.358 316.834 416.916 304.119 447.35C291.405 477.784 309.571 575.723 309.571 575.723C309.571 575.723 321.392 583.454 355.021 583.454C388.651 583.454 407.287 569.444 407.287 569.444C407.287 569.444 419.107 479.169 416.828 445.093C415.891 427.88 414.071 410.726 411.376 393.699C411.376 393.699 412.806 391.688 414.795 388.604C415.742 396.894 418.83 404.795 423.755 411.53C425.275 413.452 428.559 417.966 432.693 423.664C437.621 418.868 443.725 415.454 450.39 413.765L444.134 398.503Z" fill="white"/>
<mask id="mask2_76_187" style="mask-type:luminance" maskUnits="userSpaceOnUse" x="299" y="277" width="152" height="307">
<path d="M444.134 398.503C444.134 398.503 442.145 358.438 441.452 338.439C440.983 324.206 440.112 306.531 437.117 300.006C436.612 298.597 435.953 297.248 435.151 295.984V295.805C429.677 287.291 418.012 281.571 408.203 279.135C395.466 275.94 388.204 277.772 388.204 277.772C388.204 277.772 365.859 280.007 347.29 290.04C328.721 300.073 328.654 322.753 331.38 339.199C334.106 355.645 341.838 389.632 341.838 390.995C341.838 392.358 316.834 416.916 304.119 447.35C291.405 477.784 309.571 575.723 309.571 575.723C309.571 575.723 321.392 583.454 355.021 583.454C388.651 583.454 407.287 569.444 407.287 569.444C407.287 569.444 419.107 479.169 416.828 445.093C415.891 427.88 414.071 410.726 411.376 393.699C411.376 393.699 412.806 391.688 414.795 388.604C415.742 396.894 418.83 404.795 423.755 411.53C425.275 413.452 428.559 417.966 432.693 423.664C437.621 418.868 443.725 415.454 450.39 413.765L444.134 398.503Z" fill="white"/>
</mask>
<g mask="url(#mask2_76_187)">
<path d="M377.232 293.325L398.192 277.437C394.828 277.044 391.423 277.157 388.092 277.772C388.092 277.772 365.747 280.007 347.178 290.04C328.609 300.073 328.542 322.753 331.268 339.199C333.995 355.645 341.726 389.632 341.726 390.995C341.726 392.358 316.722 416.916 304.007 447.35C291.293 477.784 309.46 575.723 309.46 575.723C309.46 575.723 315.694 579.789 331.939 582.002C328.051 558.807 316.297 485.493 319.381 462.433C323.023 434.859 356.317 402.28 356.317 391.42C356.317 380.56 340.385 326.261 345.458 313.212C350.53 300.162 377.232 293.325 377.232 293.325Z" fill="#FF9E00"/>
<path opacity="0.5" d="M377.232 293.325L398.192 277.437C394.828 277.044 391.423 277.157 388.092 277.772C388.092 277.772 365.747 280.007 347.178 290.04C328.609 300.073 328.542 322.753 331.268 339.199C333.995 355.645 341.726 389.632 341.726 390.995C341.726 392.358 316.722 416.916 304.007 447.35C291.293 477.784 309.46 575.723 309.46 575.723C309.46 575.723 315.694 579.789 331.939 582.002C328.051 558.807 316.297 485.493 319.381 462.433C323.023 434.859 356.317 402.28 356.317 391.42C356.317 380.56 340.385 326.261 345.458 313.212C350.53 300.162 377.232 293.325 377.232 293.325Z" fill="white"/>
<path d="M399.779 465.695C399.779 465.695 392.316 508.374 376.294 529.714" stroke="#263238" stroke-linecap="round" stroke-linejoin="round"/>
</g>
<path d="M444.134 398.503C444.134 398.503 442.145 358.438 441.452 338.439C440.983 324.206 440.112 306.531 437.117 300.006C436.612 298.597 435.953 297.248 435.151 295.984V295.805C429.677 287.291 418.012 281.571 408.203 279.135C395.466 275.94 388.204 277.772 388.204 277.772C388.204 277.772 365.859 280.007 347.29 290.04C328.721 300.073 328.654 322.753 331.38 339.199C334.106 355.645 341.838 389.632 341.838 390.995C341.838 392.358 316.834 416.916 304.119 447.35C291.405 477.784 309.571 575.723 309.571 575.723C309.571 575.723 321.392 583.454 355.021 583.454C388.651 583.454 407.287 569.444 407.287 569.444C407.287 569.444 419.107 479.169 416.828 445.093C415.891 427.88 414.071 410.726 411.376 393.699C411.376 393.699 412.806 391.688 414.795 388.604C415.742 396.894 418.83 404.795 423.755 411.53C425.275 413.452 428.559 417.966 432.693 423.664C437.621 418.868 443.725 415.454 450.39 413.765L444.134 398.503Z" stroke="#263238" stroke-linecap="round" stroke-linejoin="round"/>
<path d="M475.305 498.52L476.333 492.688" stroke="#263238" stroke-linecap="round" stroke-linejoin="round"/>
<path d="M480.198 502.676L480.712 496.017" stroke="#263238" stroke-linecap="round" stroke-linejoin="round"/>
<path d="M485.36 504.553L485.181 496.8" stroke="#263238" stroke-linecap="round" stroke-linejoin="round"/>
<path d="M472.065 480.555C472.174 481.916 472.564 483.241 473.21 484.444C473.856 485.648 474.744 486.705 475.819 487.549L479.148 489.56C479.148 489.56 481.606 502.967 485.07 500.933C488.533 498.9 486.701 487.124 482.545 480.622" fill="white"/>
<path d="M472.065 480.555C472.174 481.916 472.564 483.241 473.21 484.444C473.856 485.648 474.744 486.705 475.819 487.549L479.148 489.56C479.148 489.56 481.606 502.967 485.07 500.933C488.533 498.9 486.701 487.124 482.545 480.622" stroke="#263238" stroke-linecap="round" stroke-linejoin="round"/>
<path d="M386.259 258.667C386.259 258.667 386.728 270.957 382.639 277.303C378.55 283.649 377.187 286.398 377.187 295.939C377.187 305.48 392.516 340.629 399.778 336.585C407.04 332.54 402.169 308.676 403.085 300.497C404.001 292.319 404.001 288.208 404.001 288.208C404.001 288.208 390.818 252.88 386.259 258.667Z" fill="white"/>
<mask id="mask3_76_187" style="mask-type:luminance" maskUnits="userSpaceOnUse" x="377" y="258" width="28" height="79">
<path d="M386.259 258.667C386.259 258.667 386.728 270.957 382.639 277.303C378.55 283.649 377.187 286.398 377.187 295.939C377.187 305.48 392.516 340.629 399.778 336.585C407.04 332.54 402.169 308.676 403.085 300.497C404.001 292.319 404.001 288.208 404.001 288.208C404.001 288.208 390.818 252.88 386.259 258.667Z" fill="white"/>
</mask>
<g mask="url(#mask3_76_187)">
<path d="M377.232 293.325L403.867 291.627C403.867 289.392 404.001 288.208 404.001 288.208C404.001 288.208 390.818 252.768 386.259 258.667C386.259 258.667 386.729 270.957 382.639 277.303C378.885 283.046 377.478 285.839 377.232 293.325Z" fill="#FF9E00"/>
<path opacity="0.5" d="M377.232 293.325L403.867 291.627C403.867 289.392 404.001 288.208 404.001 288.208C404.001 288.208 390.818 252.768 386.259 258.667C386.259 258.667 386.729 270.957 382.639 277.303C378.885 283.046 377.478 285.839 377.232 293.325Z" fill="white"/>
</g>
<path d="M386.259 258.667C386.259 258.667 386.728 270.957 382.639 277.303C378.55 283.649 377.187 286.398 377.187 295.939C377.187 305.48 392.516 340.629 399.778 336.585C407.04 332.54 402.169 308.676 403.085 300.497C404.001 292.319 404.001 288.208 404.001 288.208C404.001 288.208 390.818 252.88 386.259 258.667Z" stroke="#263238" stroke-linecap="round" stroke-linejoin="round"/>
<path d="M468.869 347.378L485.986 376.918L490.455 379.152L489.539 374.147L472.311 345.255C472.041 344.815 471.617 344.491 471.121 344.346C470.625 344.201 470.093 344.247 469.629 344.473C469.382 344.607 469.164 344.79 468.991 345.012C468.817 345.233 468.69 345.488 468.619 345.76C468.548 346.033 468.533 346.317 468.576 346.595C468.619 346.873 468.719 347.139 468.869 347.378Z" fill="white" stroke="#263238" stroke-linecap="round" stroke-linejoin="round"/>
<path d="M343.535 293.682C343.535 293.682 325.793 299.693 328.81 321.502C330.329 332.384 334.463 360.494 338.552 376.851C342.641 393.207 349.457 415.016 355.825 415.932C362.193 416.849 461.249 380.024 461.249 380.024C461.249 380.024 477.628 381.856 481.717 379.577C485.738 376.773 489.014 373.03 491.259 368.672C492.622 365.946 478.075 362.751 474.433 362.751C470.791 362.751 457.093 370.482 454.859 371.309C452.624 372.136 375.31 382.214 373.5 382.214C371.69 382.214 366.64 337.68 362.596 323.133C357.143 303.581 350.306 299.492 350.306 299.492" fill="white"/>
<mask id="mask4_76_187" style="mask-type:luminance" maskUnits="userSpaceOnUse" x="328" y="293" width="164" height="123">
<path d="M343.535 293.682C343.535 293.682 325.793 299.693 328.81 321.502C330.329 332.384 334.463 360.494 338.552 376.851C342.641 393.207 349.457 415.016 355.825 415.932C362.193 416.849 461.249 380.024 461.249 380.024C461.249 380.024 477.628 381.856 481.717 379.577C485.738 376.773 489.014 373.03 491.259 368.672C492.622 365.946 478.075 362.751 474.433 362.751C470.791 362.751 457.093 370.482 454.859 371.309C452.624 372.136 375.31 382.214 373.5 382.214C371.69 382.214 366.64 337.68 362.596 323.133C357.143 303.581 350.306 299.492 350.306 299.492" fill="white"/>
</mask>
<g mask="url(#mask4_76_187)">
<path d="M365.724 404.447C354.149 402.212 359.936 393.587 362.819 388.537C365.702 383.487 352.071 393.654 352.071 391.42C352.071 389.185 341.949 341.478 341.211 326.261C341.05 321.856 342.116 317.492 344.29 313.657C346.464 309.822 349.661 306.667 353.523 304.542L352.674 301.637C352.024 300.855 351.273 300.164 350.44 299.581L343.736 293.682C343.736 293.682 325.994 299.693 329.011 321.502C330.53 332.384 334.664 360.494 338.753 376.851C342.842 393.207 349.658 415.016 356.026 415.932C358.976 416.357 382.081 408.581 405.923 400.157C391.22 402.816 372.472 405.721 365.724 404.447Z" fill="#FF9E00"/>
<path opacity="0.5" d="M365.724 404.447C354.149 402.212 359.936 393.587 362.819 388.537C365.702 383.487 352.071 393.654 352.071 391.42C352.071 389.185 341.949 341.478 341.211 326.261C341.05 321.856 342.116 317.492 344.29 313.657C346.464 309.822 349.661 306.667 353.523 304.542L352.674 301.637C352.024 300.855 351.273 300.164 350.44 299.581L343.736 293.682C343.736 293.682 325.994 299.693 329.011 321.502C330.53 332.384 334.664 360.494 338.753 376.851C342.842 393.207 349.658 415.016 356.026 415.932C358.976 416.357 382.081 408.581 405.923 400.157C391.22 402.816 372.472 405.721 365.724 404.447Z" fill="white"/>
</g>
<path d="M343.535 293.682C343.535 293.682 325.793 299.693 328.81 321.502C330.329 332.384 334.463 360.494 338.552 376.851C342.641 393.207 349.457 415.016 355.825 415.932C362.193 416.849 461.249 380.024 461.249 380.024C461.249 380.024 477.628 381.856 481.717 379.577C485.738 376.773 489.014 373.03 491.259 368.672C492.622 365.946 478.075 362.751 474.433 362.751C470.791 362.751 457.093 370.482 454.859 371.309C452.624 372.136 375.31 382.214 373.5 382.214C371.69 382.214 366.64 337.68 362.596 323.133C357.143 303.581 350.306 299.492 350.306 299.492" stroke="#263238" stroke-linecap="round" stroke-linejoin="round"/>
<path d="M474.434 362.751C470.814 362.751 457.161 370.482 454.904 371.399C453.541 371.935 425.855 375.666 403.019 378.638C402.125 384.314 402.058 392.962 407.934 399.375C434.525 389.967 461.25 380.024 461.25 380.024C461.25 380.024 477.629 381.856 481.718 379.577C485.739 376.773 489.014 373.03 491.26 368.672C492.623 365.946 478.076 362.751 474.434 362.751Z" fill="white" stroke="#263238" stroke-linecap="round" stroke-linejoin="round"/>
<path d="M415.04 376.247C421.793 370.258 426.288 362.135 427.777 353.232C429.013 341.887 429.536 330.476 429.341 319.066" stroke="#263238" stroke-linecap="round" stroke-linejoin="round"/>
<path d="M386.885 244.299C386.885 244.299 385.969 234.378 380.181 237.082C374.394 239.786 374.327 251.964 377.478 255.114C379.252 256.949 381.637 258.07 384.181 258.265C384.547 264.275 386.241 270.128 389.142 275.404C393.611 282.599 401.298 297.034 410.325 294.33C419.352 291.626 435.553 268.186 439.173 256.924C441.759 247.472 443.567 237.824 444.58 228.077C444.58 228.077 424.738 237.015 410.772 238.892C402.651 239.902 394.649 241.714 386.885 244.299Z" fill="white"/>
<mask id="mask5_76_187" style="mask-type:luminance" maskUnits="userSpaceOnUse" x="375" y="228" width="70" height="67">
<path d="M386.885 244.299C386.885 244.299 385.969 234.378 380.181 237.082C374.394 239.786 374.327 251.964 377.478 255.114C379.252 256.949 381.637 258.07 384.181 258.265C384.547 264.275 386.241 270.128 389.142 275.404C393.611 282.599 401.298 297.034 410.325 294.33C419.352 291.626 435.553 268.186 439.173 256.924C441.759 247.472 443.567 237.824 444.58 228.077C444.58 228.077 424.738 237.015 410.772 238.892C402.651 239.902 394.649 241.714 386.885 244.299Z" fill="white"/>
</mask>
<g mask="url(#mask5_76_187)">
<path d="M386.885 244.299C386.885 244.299 385.969 234.378 380.181 237.082C374.394 239.786 374.327 251.964 377.478 255.114C379.252 256.949 381.637 258.07 384.181 258.265C384.547 264.275 386.241 270.128 389.142 275.404C391.913 279.873 395.845 286.979 400.605 291.202C394.438 283.515 391.957 264.902 393.901 256.165C395.845 247.428 398.37 247.986 411.532 244.836C424.693 241.685 444.647 228.077 444.647 228.077C444.647 228.077 424.805 237.015 410.839 238.892C402.695 239.898 394.671 241.709 386.885 244.299Z" fill="#FF9E00"/>
<path opacity="0.5" d="M386.885 244.299C386.885 244.299 385.969 234.378 380.181 237.082C374.394 239.786 374.327 251.964 377.478 255.114C379.252 256.949 381.637 258.07 384.181 258.265C384.547 264.275 386.241 270.128 389.142 275.404C391.913 279.873 395.845 286.979 400.605 291.202C394.438 283.515 391.957 264.902 393.901 256.165C395.845 247.428 398.37 247.986 411.532 244.836C424.693 241.685 444.647 228.077 444.647 228.077C444.647 228.077 424.805 237.015 410.839 238.892C402.695 239.898 394.671 241.709 386.885 244.299Z" fill="white"/>
</g>
<path d="M386.885 244.299C386.885 244.299 385.969 234.378 380.181 237.082C374.394 239.786 374.327 251.964 377.478 255.114C379.252 256.949 381.637 258.07 384.181 258.265C384.547 264.275 386.241 270.128 389.142 275.404C393.611 282.599 401.298 297.034 410.325 294.33C419.352 291.626 435.553 268.186 439.173 256.924C441.759 247.472 443.567 237.824 444.58 228.077C444.58 228.077 424.738 237.015 410.772 238.892C402.651 239.902 394.649 241.714 386.885 244.299Z" stroke="#263238" stroke-linecap="round" stroke-linejoin="round"/>
<path d="M416.404 272.387C416.404 272.387 423.353 275.18 425.029 274.063C426.705 272.946 425.029 270.242 425.833 265.237C426.016 263.839 426.483 262.493 427.205 261.283C427.928 260.072 428.891 259.022 430.034 258.198" stroke="#263238" stroke-linecap="round" stroke-linejoin="round"/>
<path d="M414.303 256.835L413.252 260.321C412.22 260.807 411.045 260.898 409.95 260.577C408.855 260.255 407.915 259.545 407.309 258.578" stroke="#263238" stroke-linecap="round" stroke-linejoin="round"/>
<path d="M433.855 263.337L432.805 266.846C431.769 267.325 430.594 267.409 429.5 267.085C428.406 266.76 427.468 266.047 426.861 265.08" stroke="#263238" stroke-linecap="round" stroke-linejoin="round"/>
<path d="M407.309 276.409C408.228 277.578 409.394 278.529 410.722 279.197C412.05 279.865 413.509 280.233 414.995 280.275" stroke="#263238" stroke-linecap="round" stroke-linejoin="round"/>
<path d="M420.247 251.584C418.84 249.717 416.97 248.251 414.823 247.33C412.675 246.408 410.323 246.065 408.001 246.333" stroke="#263238" stroke-linecap="round" stroke-linejoin="round"/>
<path d="M432.135 257.192C433.245 256.934 434.411 257.072 435.431 257.582C436.451 258.092 437.261 258.942 437.721 259.986" stroke="#263238" stroke-linecap="round" stroke-linejoin="round"/>
<path d="M512.354 383.778C512.354 383.778 510.119 434.434 510.119 436.669C510.119 438.903 506.41 499.235 508.644 511.882C510.879 524.53 514.588 539.456 516.823 543.925C519.057 548.394 525.023 552.104 525.023 546.897C525.023 541.691 525.761 522.318 524.286 517.111C522.452 512.066 520.21 507.178 517.582 502.497C517.582 502.497 528.755 454.545 531.727 441.138C534.699 427.731 541.402 380.046 541.402 374.84C541.402 369.633 512.354 371.868 512.354 371.868V383.778Z" fill="white"/>
<mask id="mask6_76_187" style="mask-type:luminance" maskUnits="userSpaceOnUse" x="507" y="371" width="35" height="179">
<path d="M512.354 383.778C512.354 383.778 510.119 434.434 510.119 436.669C510.119 438.903 506.41 499.235 508.644 511.882C510.879 524.53 514.588 539.456 516.823 543.925C519.057 548.394 525.023 552.104 525.023 546.897C525.023 541.691 525.761 522.318 524.286 517.111C522.452 512.066 520.21 507.178 517.582 502.497C517.582 502.497 528.755 454.545 531.727 441.138C534.699 427.731 541.402 380.046 541.402 374.84C541.402 369.633 512.354 371.868 512.354 371.868V383.778Z" fill="white"/>
</mask>
<g mask="url(#mask6_76_187)">
<path d="M512.354 383.778C512.354 383.778 510.119 434.434 510.119 436.669C510.119 438.903 506.41 499.235 508.644 511.882C510.879 524.53 514.588 539.456 516.823 543.925C519.057 548.394 525.023 552.104 525.023 546.897C525.023 541.691 525.761 522.318 524.286 517.111C522.452 512.066 520.21 507.178 517.582 502.497C517.582 502.497 528.755 454.545 531.727 441.138C534.699 427.731 541.402 380.046 541.402 374.84C541.402 369.633 512.354 371.868 512.354 371.868V383.778Z" fill="#FF9E00"/>
<path opacity="0.5" d="M512.354 383.778C512.354 383.778 510.119 434.434 510.119 436.669C510.119 438.903 506.41 499.235 508.644 511.882C510.879 524.53 514.588 539.456 516.823 543.925C519.057 548.394 525.023 552.104 525.023 546.897C525.023 541.691 525.761 522.318 524.286 517.111C522.452 512.066 520.21 507.178 517.582 502.497C517.582 502.497 528.755 454.545 531.727 441.138C534.699 427.731 541.402 380.046 541.402 374.84C541.402 369.633 512.354 371.868 512.354 371.868V383.778Z" fill="white"/>
</g>
<path d="M512.354 383.778C512.354 383.778 510.119 434.434 510.119 436.669C510.119 438.903 506.41 499.235 508.644 511.882C510.879 524.53 514.588 539.456 516.823 543.925C519.057 548.394 525.023 552.104 525.023 546.897C525.023 541.691 525.761 522.318 524.286 517.111C522.452 512.066 520.21 507.178 517.582 502.497C517.582 502.497 528.755 454.545 531.727 441.138C534.699 427.731 541.402 380.046 541.402 374.84C541.402 369.633 512.354 371.868 512.354 371.868V383.778Z" stroke="#263238" stroke-linecap="round" stroke-linejoin="round"/>
<path d="M518.03 524.977C518.03 524.977 522.164 534.607 523.527 537.825C524.89 541.043 530.878 545.154 530.878 541.49C530.878 537.825 526.409 529.58 526.409 529.58C526.532 524.137 525.263 518.753 522.722 513.938" stroke="#263238" stroke-linecap="round" stroke-linejoin="round"/>
<path d="M535.772 200.793C535.772 200.793 530.967 203.676 541.559 206.558C552.151 209.441 572.842 208.48 574.786 206.558C576.73 204.637 574.786 201.754 567.077 199.855C559.368 197.956 540.107 198.38 535.772 200.793Z" fill="#263238" stroke="#263238" stroke-linecap="round" stroke-linejoin="round"/>
<path d="M547.435 754.528C547.435 754.528 526.409 761.232 518.141 766.55C509.873 771.868 518.141 774.058 529.314 774.058C540.486 774.058 551.48 770.304 555.994 769.924C560.507 769.544 569.512 769.164 566.876 757.902C564.239 746.641 547.435 754.528 547.435 754.528Z" fill="white" stroke="#263238" stroke-linecap="round" stroke-linejoin="round"/>
<path d="M617.979 768.427C617.979 768.427 595.813 789.811 593.936 796.962C592.059 804.112 605.108 803.33 615.342 795.822C625.576 788.314 632.235 777.432 633.375 772.181C634.514 766.93 624.794 762.036 617.979 768.427Z" fill="white" stroke="#263238" stroke-linecap="round" stroke-linejoin="round"/>
<path d="M534.408 280.499C534.408 280.499 525.023 288.431 523.526 293.66C522.029 298.889 502.678 380.046 502.678 380.046L548.865 397.922L559.278 304.073C559.278 304.073 555.703 271.829 534.408 280.499Z" fill="white"/>
<mask id="mask7_76_187" style="mask-type:luminance" maskUnits="userSpaceOnUse" x="502" y="279" width="58" height="119">
<path d="M534.408 280.499C534.408 280.499 525.023 288.431 523.526 293.66C522.029 298.889 502.678 380.046 502.678 380.046L548.865 397.922L559.278 304.073C559.278 304.073 555.703 271.829 534.408 280.499Z" fill="white"/>
</mask>
<g mask="url(#mask7_76_187)">
<path d="M534.408 280.499C534.408 280.499 525.023 288.431 523.526 293.66C522.029 298.889 502.678 380.046 502.678 380.046L548.865 397.922L559.278 304.073C559.278 304.073 555.703 271.829 534.408 280.499Z" fill="#FF9E00"/>
<path opacity="0.5" d="M534.408 280.499C534.408 280.499 525.023 288.431 523.526 293.66C522.029 298.889 502.678 380.046 502.678 380.046L548.865 397.922L559.278 304.073C559.278 304.073 555.703 271.829 534.408 280.499Z" fill="white"/>
</g>
<path d="M534.408 280.499C534.408 280.499 525.023 288.431 523.526 293.66C522.029 298.889 502.678 380.046 502.678 380.046L548.865 397.922L559.278 304.073C559.278 304.073 555.703 271.829 534.408 280.499Z" stroke="#263238" stroke-linecap="round" stroke-linejoin="round"/>
<path d="M534.699 430.703C534.699 430.703 527.995 480.599 526.52 512.642C525.046 544.685 527.995 587.856 529.492 610.201C530.989 632.546 546.989 738.976 546.989 740.764C546.989 742.551 543.413 746.127 543.413 748.518C543.735 751.151 544.334 753.742 545.201 756.249C549.052 756.941 552.84 757.942 556.53 759.243C560.363 760.718 564.607 760.718 568.44 759.243C568.44 759.243 568.44 734.798 571.434 722.888C574.428 710.978 582.383 579.678 582.383 579.678V564.036C582.383 564.036 593.556 640.747 597.265 665.327C600.974 689.906 610.672 735.334 612.907 742.037C614.242 745.865 614.752 749.931 614.404 753.97V762.148L616.638 772.583C616.638 772.583 619.61 777.79 624.839 777.79C628.578 777.499 632.171 776.219 635.252 774.08C635.252 774.08 640.481 730.865 641.955 717.458C643.43 704.051 644.19 651.182 642.715 645.953C641.35 639.31 640.351 632.596 639.721 625.843C639.721 625.843 645.687 536.462 642.715 515.614C639.743 494.766 638.246 441.138 638.246 441.138C638.246 441.138 572.686 456.779 534.699 430.703Z" fill="#263238" stroke="#263238" stroke-linecap="round" stroke-linejoin="round"/>
<path d="M582.383 564.036L574.92 506.676L564.507 496.263" stroke="white" stroke-linecap="round" stroke-linejoin="round"/>
<path d="M580.216 266.287C580.216 266.287 553.402 268.41 534.409 280.588C530.454 283.135 532.979 368.874 532.979 386.995C532.979 405.117 530.096 429.943 530.588 433.295C531.079 436.646 548.24 448.936 577.334 452.377C606.427 455.819 638.895 448.065 640.794 443.774C642.693 439.484 641.755 433.295 641.755 431.373C641.755 429.451 673.842 323.58 671.384 311.648C668.926 299.715 666.647 286.398 645.107 276.208C631.208 269.661 611.701 264.768 601.668 264.768C594.495 264.895 587.335 265.403 580.216 266.287Z" fill="white"/>
<mask id="mask8_76_187" style="mask-type:luminance" maskUnits="userSpaceOnUse" x="530" y="264" width="142" height="190">
<path d="M580.216 266.287C580.216 266.287 553.402 268.41 534.409 280.588C530.454 283.135 532.979 368.874 532.979 386.995C532.979 405.117 530.096 429.943 530.588 433.295C531.079 436.646 548.24 448.936 577.334 452.377C606.427 455.819 638.895 448.065 640.794 443.774C642.693 439.484 641.755 433.295 641.755 431.373C641.755 429.451 673.842 323.58 671.384 311.648C668.926 299.715 666.647 286.398 645.107 276.208C631.208 269.661 611.701 264.768 601.668 264.768C594.495 264.895 587.335 265.403 580.216 266.287Z" fill="white"/>
</mask>
<g mask="url(#mask8_76_187)">
<path d="M593.243 436.512C560.15 434.993 541.693 422.681 539.369 419.597C537.045 416.513 540.911 317.234 540.911 308.005C540.911 298.777 574.786 284.901 574.786 284.901L580.395 266.175H580.216C580.216 266.175 553.402 268.298 534.409 280.476C530.454 283.024 532.979 368.762 532.979 386.884C532.979 405.006 530.096 429.831 530.588 433.183C531.079 436.535 548.24 448.825 577.334 452.266C606.427 455.707 638.895 447.953 640.794 443.663C642.693 439.373 641.755 433.183 641.755 431.261C641.755 430.948 642.604 427.865 643.989 422.859C634.046 422.524 620.37 437.786 593.243 436.512Z" fill="#FF9E00"/>
<path opacity="0.5" d="M593.243 436.512C560.15 434.993 541.693 422.681 539.369 419.597C537.045 416.513 540.911 317.234 540.911 308.005C540.911 298.777 574.786 284.901 574.786 284.901L580.395 266.175H580.216C580.216 266.175 553.402 268.298 534.409 280.476C530.454 283.024 532.979 368.762 532.979 386.884C532.979 405.006 530.096 429.831 530.588 433.183C531.079 436.535 548.24 448.825 577.334 452.266C606.427 455.707 638.895 447.953 640.794 443.663C642.693 439.373 641.755 433.183 641.755 431.261C641.755 430.948 642.604 427.865 643.989 422.859C634.046 422.524 620.37 437.786 593.243 436.512Z" fill="white"/>
</g>
<path d="M580.216 266.287C580.216 266.287 553.402 268.41 534.409 280.588C530.454 283.135 532.979 368.874 532.979 386.995C532.979 405.117 530.096 429.943 530.588 433.295C531.079 436.646 548.24 448.936 577.334 452.377C606.427 455.819 638.895 448.065 640.794 443.774C642.693 439.484 641.755 433.295 641.755 431.373C641.755 429.451 673.842 323.58 671.384 311.648C668.926 299.715 666.647 286.398 645.107 276.208C631.208 269.661 611.701 264.768 601.668 264.768C594.495 264.895 587.335 265.403 580.216 266.287Z" stroke="#263238" stroke-linecap="round" stroke-linejoin="round"/>
<path d="M574.384 298.732C574.384 298.732 572.015 292.029 567.68 292.029C563.897 292.41 560.196 293.375 556.708 294.889C556.708 294.889 562.921 277.236 571.993 265.304C581.065 253.372 605.868 249.662 612.057 256.232C617.914 262.836 621.288 271.274 621.599 280.096C621.599 287.247 599.656 303.469 598.226 303.961C596.796 304.453 593.936 297.749 587.724 297.749C583.867 297.771 580.026 298.251 576.283 299.179L574.384 298.732Z" fill="white" stroke="#263238" stroke-linecap="round" stroke-linejoin="round"/>
<path d="M574.875 253.394C574.875 253.394 570.094 294.442 574.384 298.732C578.674 303.022 587.277 290.129 594.494 284.409C601.712 278.689 611.209 264.298 612.147 256.254C612.729 250.075 612.893 243.864 612.639 237.663C612.639 237.663 597.846 258.176 590.294 258.176C584.841 257.862 579.549 256.22 574.875 253.394Z" fill="white"/>
<mask id="mask9_76_187" style="mask-type:luminance" maskUnits="userSpaceOnUse" x="572" y="237" width="41" height="63">
<path d="M574.875 253.394C574.875 253.394 570.094 294.442 574.384 298.732C578.674 303.022 587.277 290.129 594.494 284.409C601.712 278.689 611.209 264.298 612.147 256.254C612.729 250.075 612.893 243.864 612.639 237.663C612.639 237.663 597.846 258.176 590.294 258.176C584.841 257.862 579.549 256.22 574.875 253.394Z" fill="white"/>
</mask>
<g mask="url(#mask9_76_187)">
<path d="M590.137 258.176C584.739 257.837 579.502 256.196 574.875 253.394C574.875 253.394 570.094 294.442 574.384 298.732C574.792 299.122 575.304 299.386 575.859 299.492C579.166 289.124 582.719 276.32 582.719 276.32L597.824 264.343L609.779 244.836L608.818 242.601C603.902 248.59 595.366 258.176 590.137 258.176Z" fill="#FF9E00"/>
<path opacity="0.5" d="M590.137 258.176C584.739 257.837 579.502 256.196 574.875 253.394C574.875 253.394 570.094 294.442 574.384 298.732C574.792 299.122 575.304 299.386 575.859 299.492C579.166 289.124 582.719 276.32 582.719 276.32L597.824 264.343L609.779 244.836L608.818 242.601C603.902 248.59 595.366 258.176 590.137 258.176Z" fill="white"/>
</g>
<path d="M574.875 253.394C574.875 253.394 570.094 294.442 574.384 298.732C578.674 303.022 587.277 290.129 594.494 284.409C601.712 278.689 611.209 264.298 612.147 256.254C612.729 250.075 612.893 243.864 612.639 237.663C612.639 237.663 597.846 258.176 590.294 258.176C584.841 257.862 579.549 256.22 574.875 253.394Z" stroke="#263238" stroke-linecap="round" stroke-linejoin="round"/>
<path d="M562.273 201.754C562.273 201.754 561.312 230.155 565.155 241.238C568.999 252.321 579.121 269.17 592.617 265.326C606.114 261.483 616.214 234.043 616.214 234.043C616.214 234.043 628.727 228.256 631.141 219.586C632.519 213.866 632.357 207.883 630.671 202.246C630.671 202.246 604.17 194.068 590.204 195.028C581.265 195.769 572.493 197.88 564.194 201.285L562.273 201.754Z" fill="white"/>
<mask id="mask10_76_187" style="mask-type:luminance" maskUnits="userSpaceOnUse" x="562" y="194" width="71" height="72">
<path d="M562.273 201.754C562.273 201.754 561.312 230.155 565.155 241.238C568.999 252.321 579.121 269.17 592.617 265.326C606.114 261.483 616.214 234.043 616.214 234.043C616.214 234.043 628.727 228.256 631.141 219.586C632.519 213.866 632.357 207.883 630.671 202.246C630.671 202.246 604.17 194.068 590.204 195.028C581.265 195.769 572.493 197.88 564.194 201.285L562.273 201.754Z" fill="white"/>
</mask>
<g mask="url(#mask10_76_187)">
<path d="M631.677 206.782C631.677 206.156 631.476 205.575 631.364 205.039C630.649 204.145 629.666 202.804 628.571 201.598C622.046 199.721 601.757 194.202 590.204 194.894C581.265 195.635 572.493 197.746 564.194 201.151L562.273 201.643C562.273 201.643 561.312 230.043 565.155 241.126C568.999 252.21 579.121 269.058 592.617 265.214C597.186 263.484 601.126 260.415 603.924 256.41C604.438 255.047 604.751 254.176 604.751 254.176C604.751 254.176 587.746 266.779 581.445 255.45C577.625 248.078 575.887 239.804 576.417 231.518C568.865 228.367 567.613 228.993 573.267 225.865C578.92 222.736 578.317 218.938 578.317 218.938C596.573 218.938 620.482 212.011 620.482 212.011L631.677 206.782Z" fill="#FF9E00"/>
<path opacity="0.5" d="M631.677 206.782C631.677 206.156 631.476 205.575 631.364 205.039C630.649 204.145 629.666 202.804 628.571 201.598C622.046 199.721 601.757 194.202 590.204 194.894C581.265 195.635 572.493 197.746 564.194 201.151L562.273 201.643C562.273 201.643 561.312 230.043 565.155 241.126C568.999 252.21 579.121 269.058 592.617 265.214C597.186 263.484 601.126 260.415 603.924 256.41C604.438 255.047 604.751 254.176 604.751 254.176C604.751 254.176 587.746 266.779 581.445 255.45C577.625 248.078 575.887 239.804 576.417 231.518C568.865 228.367 567.613 228.993 573.267 225.865C578.92 222.736 578.317 218.938 578.317 218.938C596.573 218.938 620.482 212.011 620.482 212.011L631.677 206.782Z" fill="white"/>
</g>
<path d="M562.273 201.754C562.273 201.754 561.312 230.155 565.155 241.238C568.999 252.321 579.121 269.17 592.617 265.326C606.114 261.483 616.214 234.043 616.214 234.043C616.214 234.043 628.727 228.256 631.141 219.586C632.519 213.866 632.357 207.883 630.671 202.246C630.671 202.246 604.17 194.068 590.204 195.028C581.265 195.769 572.493 197.88 564.194 201.285L562.273 201.754Z" stroke="#263238" stroke-linecap="round" stroke-linejoin="round"/>
<path d="M580.306 215.251C579.772 217.961 578.799 220.565 577.423 222.96C575.01 227.295 569.222 228.256 571.166 230.669C573.11 233.082 581.758 234.043 581.758 234.043" stroke="#263238" stroke-linecap="round" stroke-linejoin="round"/>
<path d="M593.69 219.027C593.69 221.418 592.819 223.362 591.769 223.362C590.719 223.362 589.825 221.418 589.825 219.027C589.825 216.636 590.696 214.692 591.769 214.692C592.841 214.692 593.69 216.636 593.69 219.027Z" fill="#263238"/>
<path d="M574.406 217.128C574.406 219.541 573.557 221.463 572.484 221.463C571.412 221.463 570.562 219.541 570.562 217.128C570.562 214.714 571.412 212.793 572.484 212.793C573.557 212.793 574.406 214.647 574.406 217.128Z" fill="#263238"/>
<path d="M579.612 241.238C579.612 241.238 588.751 243.651 595.03 237.864" stroke="#263238" stroke-linecap="round" stroke-linejoin="round"/>
<path d="M589.244 206.693C589.244 206.693 593.713 202.224 597.131 210.156" stroke="#263238" stroke-linecap="round" stroke-linejoin="round"/>
<path d="M574.786 206.558C574.786 206.558 567.054 206.201 566.071 210.648" stroke="#263238" stroke-linecap="round" stroke-linejoin="round"/>
<path d="M614.293 198.38C614.293 198.38 609.958 215.228 616.706 216.256C623.454 217.284 626.337 201.33 626.337 201.33L614.293 198.38Z" fill="#263238" stroke="#263238" stroke-linecap="round" stroke-linejoin="round"/>
<path d="M562.742 197.017C562.742 197.017 563.725 176.795 564.686 168.125C565.647 159.455 582.562 152.237 599.365 152.707C616.169 153.176 631.475 167.566 633.397 173.354C635.319 179.141 633.397 201.486 633.397 201.486L632.637 210.849C632.637 210.849 610.426 201.911 590.695 200.883C570.965 199.855 564.194 201.352 564.194 201.352L562.742 197.017Z" fill="#263238" stroke="#263238" stroke-linecap="round" stroke-linejoin="round"/>
<path d="M577.713 174.65L570.205 173.354L569.937 175.052L574.249 175.744L573.959 179.141L577.132 180.102L577.422 182.85L581.444 184.213L577.713 174.65Z" fill="white"/>
<path d="M587.501 175.454L594.986 175.365L595.277 177.108H590.964L591.255 180.549L588.082 180.973L587.791 183.699L583.769 184.392L587.501 175.454Z" fill="white"/>
<path d="M604.572 202.223C597.641 204.014 590.524 204.989 583.367 205.128C572.775 205.128 552.084 200.302 545.38 200.302C542.155 200.23 538.928 200.394 535.727 200.793C544.889 197.398 554.436 195.146 564.15 194.09C579.121 192.548 600.327 199.81 604.572 202.223Z" fill="white" stroke="#263238" stroke-linecap="round" stroke-linejoin="round"/>
<path d="M545.871 381.454C545.871 381.454 540.531 372.65 539.682 372.359C538.832 372.069 531.749 368.427 530.587 368.047C529.425 367.667 526.677 367.354 527.436 369.857C528.196 372.359 533.268 375.309 533.268 375.309L535.257 380.761L545.871 381.454Z" fill="white" stroke="#263238" stroke-linecap="round" stroke-linejoin="round"/>
<path d="M574.383 298.732L567.479 342.819L574.741 343.936L578.651 318.798" stroke="#263238" stroke-linecap="round" stroke-linejoin="round"/>
<path d="M557.357 337.501L520.621 419.575L450.48 422.435L488.645 339.892L557.357 337.501Z" fill="#263238" stroke="#263238" stroke-linecap="round" stroke-linejoin="round"/>
<path d="M529.716 338.06L533.604 330.999L524.956 331.378L521.291 338.73L514.454 339.02L510.164 348.093H532.107L537.358 338.06H529.716Z" fill="white" stroke="#263238" stroke-linecap="round" stroke-linejoin="round"/>
<path d="M551.435 382.973C551.435 382.973 537.559 376.493 535.794 376.493L509.851 376.203C508.517 377.376 507.586 378.94 507.192 380.672C506.902 383.018 505.427 387.152 506.902 389.23C508.376 391.308 523.705 399.553 529.895 402.793C536.084 406.034 554.474 403.374 554.474 403.374C554.474 403.374 598.405 422.547 613.153 429.921C627.9 437.294 640.57 441.428 646.782 441.428C652.994 441.428 660.927 405.14 660.927 405.14L627.61 396.202L624.951 405.14C624.951 405.14 605.488 399.844 581.892 395.42C560.575 391.42 551.435 382.973 551.435 382.973Z" fill="white" stroke="#263238" stroke-linecap="round" stroke-linejoin="round"/>
<path d="M508.085 379.443C508.085 379.443 529.313 383.577 532.553 384.158" stroke="#263238" stroke-linecap="round" stroke-linejoin="round"/>
<path d="M506.611 383.577C506.611 383.577 528.42 390.951 529.604 391.241" stroke="#263238" stroke-linecap="round" stroke-linejoin="round"/>
<path d="M508.667 389.476C508.667 389.476 524.89 396.559 527.258 396.85" stroke="#263238" stroke-linecap="round" stroke-linejoin="round"/>
<path d="M627.207 319.692L618.269 401.475C618.269 401.475 635.698 409.05 646.871 410.972C653.244 412.099 659.705 412.66 666.177 412.648C666.177 412.648 674.623 346.73 674.087 329.524C673.551 312.318 671.227 296.252 661.909 293.772" fill="white"/>
<mask id="mask11_76_187" style="mask-type:luminance" maskUnits="userSpaceOnUse" x="618" y="293" width="57" height="120">
<path d="M627.207 319.692L618.269 401.475C618.269 401.475 635.698 409.05 646.871 410.972C653.244 412.099 659.705 412.66 666.177 412.648C666.177 412.648 674.623 346.73 674.087 329.524C673.551 312.318 671.227 296.252 661.909 293.772" fill="white"/>
</mask>
<g mask="url(#mask11_76_187)">
<path d="M641.732 398.123C639.498 397.364 650.201 328.853 642.514 314.24C641.397 312.162 640.28 311.111 639.14 310.821L633.219 315.29C628.906 322.329 625.577 335.043 625.577 335.043V335.289L618.203 401.475C618.203 401.475 628.057 405.765 637.688 408.693C638.291 407.843 638.648 407.285 638.648 407.285C638.648 407.285 650.201 404.201 656.368 403.419C662.535 402.637 644.056 398.816 641.732 398.123Z" fill="#FF9E00"/>
<path opacity="0.5" d="M641.732 398.123C639.498 397.364 650.201 328.853 642.514 314.24C641.397 312.162 640.28 311.111 639.14 310.821L633.219 315.29C628.906 322.329 625.577 335.043 625.577 335.043V335.289L618.203 401.475C618.203 401.475 628.057 405.765 637.688 408.693C638.291 407.843 638.648 407.285 638.648 407.285C638.648 407.285 650.201 404.201 656.368 403.419C662.535 402.637 644.056 398.816 641.732 398.123Z" fill="white"/>
</g>
<path d="M627.207 319.692L618.269 401.475C618.269 401.475 635.698 409.05 646.871 410.972C653.244 412.099 659.705 412.66 666.177 412.648C666.177 412.648 674.623 346.73 674.087 329.524C673.551 312.318 671.227 296.252 661.909 293.772" stroke="#263238" stroke-linecap="round" stroke-linejoin="round"/>
</svg>
