<svg width="50" height="50" viewBox="0 0 50 50" fill="none" xmlns="http://www.w3.org/2000/svg">
<circle cx="25" cy="25" r="25" fill="#FF9E00"/>
<path d="M34.5219 35.8125C34.8906 35.8125 35.1979 35.6896 35.4438 35.4438C35.6896 35.1979 35.8125 34.8906 35.8125 34.5219V29.5437C35.8125 29.2569 35.7203 29.0058 35.5359 28.7903C35.3516 28.5748 35.116 28.4367 34.8292 28.376L30.5885 27.5156C30.3017 27.4747 30.0096 27.5005 29.7121 27.5931C29.4147 27.6857 29.1742 27.8237 28.9906 28.0073L26.1021 30.8958C24.5451 29.9535 23.1214 28.837 21.8307 27.5464C20.5401 26.2557 19.4646 24.8729 18.6042 23.3979L21.5542 20.3865C21.7385 20.2021 21.8565 19.9919 21.9082 19.7559C21.9598 19.5199 21.9647 19.2589 21.9229 18.9729L21.124 14.6708C21.083 14.384 20.9498 14.1484 20.7245 13.9641C20.4991 13.7797 20.2431 13.6875 19.9563 13.6875H14.9781C14.6094 13.6875 14.3021 13.8104 14.0562 14.0562C13.8104 14.3021 13.6875 14.6094 13.6875 14.9781C13.6875 17.6208 14.2767 20.1972 15.455 22.7071C16.6334 25.2171 18.1903 27.4398 20.1259 29.3754C22.0614 31.3109 24.2841 32.8678 26.7941 34.0462C29.3041 35.2245 31.88 35.8133 34.5219 35.8125Z" fill="white"/>
</svg>
