<svg width="75" height="75" viewBox="0 0 75 75" fill="none" xmlns="http://www.w3.org/2000/svg">
<circle cx="37.5" cy="37.5" r="37.5" fill="#FF9E00"/>
<path d="M46.875 22.625C45.4688 22.625 43.75 24.1875 43.75 25.75H31.25C31.25 24.1875 29.5312 22.625 28.125 22.625H21.875V36.6875C21.875 38.25 23.4375 39.8125 25 39.8125H28.4375C29.0625 42.9375 31.0938 45.5938 35.9375 46.0625V49.3125C31.25 50.0312 31.25 53.875 31.25 53.875H43.75C43.75 53.875 43.75 50.0312 39.0625 49.3125V46.0625C43.9062 45.5938 45.9375 42.9375 46.5625 39.8125H50C51.5625 39.8125 53.125 38.25 53.125 36.6875V22.625H46.875ZM28.125 36.6875H25V25.75H28.125V36.6875ZM50 36.6875H46.875V25.75H50V36.6875Z" fill="white"/>
</svg>
