<svg width="116" height="20" viewBox="0 0 116 20" fill="none" xmlns="http://www.w3.org/2000/svg">
<path d="M9.99794 2.98218L7.7196 7.60273L2.62183 8.34551L6.3121 11.94L5.44322 17.0177L10.0021 14.6188L14.5629 17.0144L13.6902 11.9372L17.3779 8.33996L12.2796 7.60107L9.99794 2.98218Z" fill="#FCEA2B"/>
<path d="M9.99794 2.98218L7.7196 7.60273L2.62183 8.34551L6.3121 11.94L5.44322 17.0177L10.0021 14.6188L14.5629 17.0144L13.6902 11.9372L17.3779 8.33996L12.2796 7.60107L9.99794 2.98218Z" stroke="#FCEA2B" stroke-width="0.666667" stroke-miterlimit="10" stroke-linecap="round" stroke-linejoin="round"/>
<path d="M33.9979 2.98218L31.7196 7.60273L26.6218 8.34551L30.3121 11.94L29.4432 17.0177L34.0021 14.6188L38.5629 17.0144L37.6902 11.9372L41.3779 8.33996L36.2796 7.60107L33.9979 2.98218Z" fill="#FCEA2B"/>
<path d="M33.9979 2.98218L31.7196 7.60273L26.6218 8.34551L30.3121 11.94L29.4432 17.0177L34.0021 14.6188L38.5629 17.0144L37.6902 11.9372L41.3779 8.33996L36.2796 7.60107L33.9979 2.98218Z" stroke="#FCEA2B" stroke-width="0.666667" stroke-miterlimit="10" stroke-linecap="round" stroke-linejoin="round"/>
<path d="M57.9979 2.98218L55.7196 7.60273L50.6218 8.34551L54.3121 11.94L53.4432 17.0177L58.0021 14.6188L62.5629 17.0144L61.6902 11.9372L65.3779 8.33996L60.2796 7.60107L57.9979 2.98218Z" fill="#FCEA2B"/>
<path d="M57.9979 2.98218L55.7196 7.60273L50.6218 8.34551L54.3121 11.94L53.4432 17.0177L58.0021 14.6188L62.5629 17.0144L61.6902 11.9372L65.3779 8.33996L60.2796 7.60107L57.9979 2.98218Z" stroke="#FCEA2B" stroke-width="0.666667" stroke-miterlimit="10" stroke-linecap="round" stroke-linejoin="round"/>
<path d="M81.9979 2.98218L79.7196 7.60273L74.6218 8.34551L78.3121 11.94L77.4432 17.0177L82.0021 14.6188L86.5629 17.0144L85.6902 11.9372L89.3779 8.33996L84.2796 7.60107L81.9979 2.98218Z" fill="#FCEA2B"/>
<path d="M81.9979 2.98218L79.7196 7.60273L74.6218 8.34551L78.3121 11.94L77.4432 17.0177L82.0021 14.6188L86.5629 17.0144L85.6902 11.9372L89.3779 8.33996L84.2796 7.60107L81.9979 2.98218Z" stroke="#FCEA2B" stroke-width="0.666667" stroke-miterlimit="10" stroke-linecap="round" stroke-linejoin="round"/>
<path d="M105.998 2.98218L103.72 7.60273L98.6218 8.34551L102.312 11.94L101.443 17.0177L106.002 14.6188L110.563 17.0144L109.69 11.9372L113.378 8.33996L108.28 7.60107L105.998 2.98218Z" fill="url(#paint0_linear_78_188)"/>
<defs>
<linearGradient id="paint0_linear_78_188" x1="98.5" y1="8.33333" x2="112.667" y2="8.33333" gradientUnits="userSpaceOnUse">
<stop stop-color="#FCEA2B"/>
<stop offset="1" stop-color="#FCEA2B" stop-opacity="0"/>
</linearGradient>
</defs>
</svg>
