<svg width="50" height="50" viewBox="0 0 50 50" fill="none" xmlns="http://www.w3.org/2000/svg">
<rect width="50" height="50" rx="25" fill="#FF9E00"/>
<path d="M38.9466 17.9999C37.9199 18.4666 36.8132 18.7733 35.6666 18.9199C36.8399 18.2133 37.7466 17.0933 38.1732 15.7466C37.0666 16.4133 35.8399 16.8799 34.5466 17.1466C33.4932 15.9999 32.0132 15.3333 30.3332 15.3333C27.1999 15.3333 24.6399 17.8933 24.6399 21.0533C24.6399 21.5066 24.6932 21.9466 24.7866 22.3599C20.0399 22.1199 15.8132 19.8399 12.9999 16.3866C12.5066 17.2266 12.2266 18.2133 12.2266 19.2533C12.2266 21.2399 13.2266 22.9999 14.7732 23.9999C13.8266 23.9999 12.9466 23.7333 12.1732 23.3333V23.3733C12.1732 26.1466 14.1466 28.4666 16.7599 28.9866C15.9209 29.2162 15.04 29.2481 14.1866 29.0799C14.5487 30.2166 15.2579 31.2111 16.2146 31.9238C17.1712 32.6365 18.3272 33.0315 19.5199 33.0533C17.4981 34.6538 14.9919 35.519 12.4132 35.5066C11.9599 35.5066 11.5066 35.4799 11.0532 35.4266C13.5866 37.0533 16.5999 37.9999 19.8266 37.9999C30.3332 37.9999 36.1066 29.2799 36.1066 21.7199C36.1066 21.4666 36.1066 21.2266 36.0932 20.9733C37.2132 20.1733 38.1732 19.1599 38.9466 17.9999Z" fill="white"/>
</svg>
