<svg width="40" height="40" viewBox="0 0 50 50" fill="none" xmlns="http://www.w3.org/2000/svg">
<circle cx="25" cy="25" r="25" fill="#FF9E00"/>
<path d="M34.4001 15.5466C33.1777 14.3118 31.7216 13.3328 30.1169 12.6667C28.5122 12.0005 26.7909 11.6605 25.0534 11.6666C17.7734 11.6666 11.8401 17.5999 11.8401 24.8799C11.8401 27.2132 12.4534 29.4799 13.6001 31.4799L11.7334 38.3333L18.7334 36.4933C20.6667 37.5466 22.8401 38.1066 25.0534 38.1066C32.3334 38.1066 38.2667 32.1733 38.2667 24.8932C38.2667 21.3599 36.8934 18.0399 34.4001 15.5466ZM25.0534 35.8666C23.0801 35.8666 21.1467 35.3333 19.4534 34.3333L19.0534 34.0933L14.8934 35.1866L16.0001 31.1333L15.7334 30.7199C14.6371 28.9692 14.0549 26.9456 14.0534 24.8799C14.0534 18.8266 18.9867 13.8933 25.0401 13.8933C27.9734 13.8933 30.7334 15.0399 32.8001 17.1199C33.8234 18.1385 34.6343 19.3501 35.1859 20.6845C35.7375 22.0188 36.0188 23.4494 36.0134 24.8932C36.0401 30.9466 31.1067 35.8666 25.0534 35.8666ZM31.0801 27.6532C30.7467 27.4932 29.1201 26.6933 28.8267 26.5732C28.5201 26.4666 28.3067 26.4132 28.0801 26.7332C27.8534 27.0666 27.2267 27.8132 27.0401 28.0266C26.8534 28.2533 26.6534 28.2799 26.3201 28.1066C25.9867 27.9466 24.9201 27.5866 23.6667 26.4666C22.6801 25.5866 22.0267 24.5066 21.8267 24.1733C21.6401 23.8399 21.8001 23.6666 21.9734 23.4932C22.1201 23.3466 22.3067 23.1066 22.4667 22.9199C22.6267 22.7332 22.6934 22.5866 22.8001 22.3732C22.9067 22.1466 22.8534 21.9599 22.7734 21.7999C22.6934 21.6399 22.0267 20.0133 21.7601 19.3466C21.4934 18.7066 21.2134 18.7866 21.0134 18.7733H20.3734C20.1467 18.7733 19.8001 18.8533 19.4934 19.1866C19.2001 19.5199 18.3467 20.3199 18.3467 21.9466C18.3467 23.5733 19.5334 25.1466 19.6934 25.3599C19.8534 25.5866 22.0267 28.9199 25.3334 30.3466C26.1201 30.6933 26.7334 30.8933 27.2134 31.0399C28.0001 31.2933 28.7201 31.2532 29.2934 31.1732C29.9334 31.0799 31.2534 30.3732 31.5201 29.5999C31.8001 28.8266 31.8001 28.1733 31.7067 28.0266C31.6134 27.8799 31.4134 27.8132 31.0801 27.6532Z" fill="white"/>
</svg>
